<mxfile host="Electron" modified="2024-05-31T13:33:23.302Z" agent="Mozilla/5.0 (Windows NT 10.0; Win64; x64) AppleWebKit/537.36 (KHTML, like Gecko) draw.io/24.4.8 Chrome/124.0.6367.207 Electron/30.0.6 Safari/537.36" etag="7sezNh38ho_AiQ8A2tKC" version="24.4.8" type="device">
  <diagram id="C5RBs43oDa-KdzZeNtuy" name="Page-1">
    <mxGraphModel dx="645" dy="689" grid="1" gridSize="10" guides="1" tooltips="1" connect="1" arrows="1" fold="1" page="1" pageScale="1" pageWidth="827" pageHeight="1169" math="0" shadow="0">
      <root>
        <mxCell id="WIyWlLk6GJQsqaUBKTNV-0" />
        <mxCell id="WIyWlLk6GJQsqaUBKTNV-1" parent="WIyWlLk6GJQsqaUBKTNV-0" />
        <mxCell id="NrNgkpMDVIVtLAmpbGIn-0" value="HogwartsStudent" style="swimlane;fontStyle=1;align=center;verticalAlign=top;childLayout=stackLayout;horizontal=1;startSize=26;horizontalStack=0;resizeParent=1;resizeParentMax=0;resizeLast=0;collapsible=1;marginBottom=0;whiteSpace=wrap;html=1;" parent="WIyWlLk6GJQsqaUBKTNV-1" vertex="1">
          <mxGeometry x="50" y="174" width="290" height="476" as="geometry" />
        </mxCell>
        <mxCell id="NrNgkpMDVIVtLAmpbGIn-1" value="- name: str" style="text;strokeColor=none;fillColor=none;align=left;verticalAlign=top;spacingLeft=4;spacingRight=4;overflow=hidden;rotatable=0;points=[[0,0.5],[1,0.5]];portConstraint=eastwest;whiteSpace=wrap;html=1;" parent="NrNgkpMDVIVtLAmpbGIn-0" vertex="1">
          <mxGeometry y="26" width="290" height="26" as="geometry" />
        </mxCell>
        <mxCell id="NrNgkpMDVIVtLAmpbGIn-4" value="- hogwarts_house: str" style="text;strokeColor=none;fillColor=none;align=left;verticalAlign=top;spacingLeft=4;spacingRight=4;overflow=hidden;rotatable=0;points=[[0,0.5],[1,0.5]];portConstraint=eastwest;whiteSpace=wrap;html=1;" parent="NrNgkpMDVIVtLAmpbGIn-0" vertex="1">
          <mxGeometry y="52" width="290" height="26" as="geometry" />
        </mxCell>
        <mxCell id="NrNgkpMDVIVtLAmpbGIn-5" value="- mana: float&lt;div&gt;&lt;br&gt;&lt;/div&gt;" style="text;strokeColor=none;fillColor=none;align=left;verticalAlign=top;spacingLeft=4;spacingRight=4;overflow=hidden;rotatable=0;points=[[0,0.5],[1,0.5]];portConstraint=eastwest;whiteSpace=wrap;html=1;" parent="NrNgkpMDVIVtLAmpbGIn-0" vertex="1">
          <mxGeometry y="78" width="290" height="26" as="geometry" />
        </mxCell>
        <mxCell id="NrNgkpMDVIVtLAmpbGIn-6" value="- learned_spells: List" style="text;strokeColor=none;fillColor=none;align=left;verticalAlign=top;spacingLeft=4;spacingRight=4;overflow=hidden;rotatable=0;points=[[0,0.5],[1,0.5]];portConstraint=eastwest;whiteSpace=wrap;html=1;" parent="NrNgkpMDVIVtLAmpbGIn-0" vertex="1">
          <mxGeometry y="104" width="290" height="26" as="geometry" />
        </mxCell>
        <mxCell id="Ttb9FLAZ6aujYkMbaEGD-44" value="- min_cost_spell: float" style="text;strokeColor=none;fillColor=none;align=left;verticalAlign=top;spacingLeft=4;spacingRight=4;overflow=hidden;rotatable=0;points=[[0,0.5],[1,0.5]];portConstraint=eastwest;whiteSpace=wrap;html=1;" vertex="1" parent="NrNgkpMDVIVtLAmpbGIn-0">
          <mxGeometry y="130" width="290" height="26" as="geometry" />
        </mxCell>
        <mxCell id="NrNgkpMDVIVtLAmpbGIn-2" value="" style="line;strokeWidth=1;fillColor=none;align=left;verticalAlign=middle;spacingTop=-1;spacingLeft=3;spacingRight=3;rotatable=0;labelPosition=right;points=[];portConstraint=eastwest;strokeColor=inherit;" parent="NrNgkpMDVIVtLAmpbGIn-0" vertex="1">
          <mxGeometry y="156" width="290" height="8" as="geometry" />
        </mxCell>
        <mxCell id="NrNgkpMDVIVtLAmpbGIn-3" value="+ get_name(): str" style="text;strokeColor=none;fillColor=none;align=left;verticalAlign=top;spacingLeft=4;spacingRight=4;overflow=hidden;rotatable=0;points=[[0,0.5],[1,0.5]];portConstraint=eastwest;whiteSpace=wrap;html=1;" parent="NrNgkpMDVIVtLAmpbGIn-0" vertex="1">
          <mxGeometry y="164" width="290" height="26" as="geometry" />
        </mxCell>
        <mxCell id="NrNgkpMDVIVtLAmpbGIn-7" value="+ get_hogwarts_house(): str" style="text;strokeColor=none;fillColor=none;align=left;verticalAlign=top;spacingLeft=4;spacingRight=4;overflow=hidden;rotatable=0;points=[[0,0.5],[1,0.5]];portConstraint=eastwest;whiteSpace=wrap;html=1;" parent="NrNgkpMDVIVtLAmpbGIn-0" vertex="1">
          <mxGeometry y="190" width="290" height="26" as="geometry" />
        </mxCell>
        <mxCell id="NrNgkpMDVIVtLAmpbGIn-8" value="+ get_mana(): float" style="text;strokeColor=none;fillColor=none;align=left;verticalAlign=top;spacingLeft=4;spacingRight=4;overflow=hidden;rotatable=0;points=[[0,0.5],[1,0.5]];portConstraint=eastwest;whiteSpace=wrap;html=1;" parent="NrNgkpMDVIVtLAmpbGIn-0" vertex="1">
          <mxGeometry y="216" width="290" height="26" as="geometry" />
        </mxCell>
        <mxCell id="NrNgkpMDVIVtLAmpbGIn-9" value="+ get_learned_spells(): List" style="text;strokeColor=none;fillColor=none;align=left;verticalAlign=top;spacingLeft=4;spacingRight=4;overflow=hidden;rotatable=0;points=[[0,0.5],[1,0.5]];portConstraint=eastwest;whiteSpace=wrap;html=1;" parent="NrNgkpMDVIVtLAmpbGIn-0" vertex="1">
          <mxGeometry y="242" width="290" height="26" as="geometry" />
        </mxCell>
        <mxCell id="NrNgkpMDVIVtLAmpbGIn-10" value="+ set_name(name: str): None" style="text;strokeColor=none;fillColor=none;align=left;verticalAlign=top;spacingLeft=4;spacingRight=4;overflow=hidden;rotatable=0;points=[[0,0.5],[1,0.5]];portConstraint=eastwest;whiteSpace=wrap;html=1;" parent="NrNgkpMDVIVtLAmpbGIn-0" vertex="1">
          <mxGeometry y="268" width="290" height="26" as="geometry" />
        </mxCell>
        <mxCell id="NrNgkpMDVIVtLAmpbGIn-11" value="+ set_hogwarts_house(hogwarts: str): None" style="text;strokeColor=none;fillColor=none;align=left;verticalAlign=top;spacingLeft=4;spacingRight=4;overflow=hidden;rotatable=0;points=[[0,0.5],[1,0.5]];portConstraint=eastwest;whiteSpace=wrap;html=1;" parent="NrNgkpMDVIVtLAmpbGIn-0" vertex="1">
          <mxGeometry y="294" width="290" height="26" as="geometry" />
        </mxCell>
        <mxCell id="NrNgkpMDVIVtLAmpbGIn-12" value="+ set_learned_spells(spells: List): None" style="text;strokeColor=none;fillColor=none;align=left;verticalAlign=top;spacingLeft=4;spacingRight=4;overflow=hidden;rotatable=0;points=[[0,0.5],[1,0.5]];portConstraint=eastwest;whiteSpace=wrap;html=1;" parent="NrNgkpMDVIVtLAmpbGIn-0" vertex="1">
          <mxGeometry y="320" width="290" height="26" as="geometry" />
        </mxCell>
        <mxCell id="NrNgkpMDVIVtLAmpbGIn-13" value="+ learn_spell(spell: Spell): None" style="text;strokeColor=none;fillColor=none;align=left;verticalAlign=top;spacingLeft=4;spacingRight=4;overflow=hidden;rotatable=0;points=[[0,0.5],[1,0.5]];portConstraint=eastwest;whiteSpace=wrap;html=1;" parent="NrNgkpMDVIVtLAmpbGIn-0" vertex="1">
          <mxGeometry y="346" width="290" height="26" as="geometry" />
        </mxCell>
        <mxCell id="NrNgkpMDVIVtLAmpbGIn-14" value="+ cast_spell(target: HogwartsStudent): None" style="text;strokeColor=none;fillColor=none;align=left;verticalAlign=top;spacingLeft=4;spacingRight=4;overflow=hidden;rotatable=0;points=[[0,0.5],[1,0.5]];portConstraint=eastwest;whiteSpace=wrap;html=1;" parent="NrNgkpMDVIVtLAmpbGIn-0" vertex="1">
          <mxGeometry y="372" width="290" height="26" as="geometry" />
        </mxCell>
        <mxCell id="Ttb9FLAZ6aujYkMbaEGD-42" value="+ can_attacking(): bool" style="text;strokeColor=none;fillColor=none;align=left;verticalAlign=top;spacingLeft=4;spacingRight=4;overflow=hidden;rotatable=0;points=[[0,0.5],[1,0.5]];portConstraint=eastwest;whiteSpace=wrap;html=1;" vertex="1" parent="NrNgkpMDVIVtLAmpbGIn-0">
          <mxGeometry y="398" width="290" height="26" as="geometry" />
        </mxCell>
        <mxCell id="Ttb9FLAZ6aujYkMbaEGD-43" value="- calculate_min_cost_spell&lt;span style=&quot;background-color: initial;&quot;&gt;(): bool&lt;/span&gt;" style="text;strokeColor=none;fillColor=none;align=left;verticalAlign=top;spacingLeft=4;spacingRight=4;overflow=hidden;rotatable=0;points=[[0,0.5],[1,0.5]];portConstraint=eastwest;whiteSpace=wrap;html=1;" vertex="1" parent="NrNgkpMDVIVtLAmpbGIn-0">
          <mxGeometry y="424" width="290" height="26" as="geometry" />
        </mxCell>
        <mxCell id="NrNgkpMDVIVtLAmpbGIn-15" value="+ __str__(): str" style="text;strokeColor=none;fillColor=none;align=left;verticalAlign=top;spacingLeft=4;spacingRight=4;overflow=hidden;rotatable=0;points=[[0,0.5],[1,0.5]];portConstraint=eastwest;whiteSpace=wrap;html=1;" parent="NrNgkpMDVIVtLAmpbGIn-0" vertex="1">
          <mxGeometry y="450" width="290" height="26" as="geometry" />
        </mxCell>
        <mxCell id="NrNgkpMDVIVtLAmpbGIn-17" value="Spell" style="swimlane;fontStyle=1;align=center;verticalAlign=top;childLayout=stackLayout;horizontal=1;startSize=26;horizontalStack=0;resizeParent=1;resizeParentMax=0;resizeLast=0;collapsible=1;marginBottom=0;whiteSpace=wrap;html=1;" parent="WIyWlLk6GJQsqaUBKTNV-1" vertex="1">
          <mxGeometry x="480" y="278" width="260" height="320" as="geometry" />
        </mxCell>
        <mxCell id="NrNgkpMDVIVtLAmpbGIn-21" value="- name: str" style="text;strokeColor=none;fillColor=none;align=left;verticalAlign=top;spacingLeft=4;spacingRight=4;overflow=hidden;rotatable=0;points=[[0,0.5],[1,0.5]];portConstraint=eastwest;whiteSpace=wrap;html=1;" parent="NrNgkpMDVIVtLAmpbGIn-17" vertex="1">
          <mxGeometry y="26" width="260" height="26" as="geometry" />
        </mxCell>
        <mxCell id="NrNgkpMDVIVtLAmpbGIn-22" value="- description: str" style="text;strokeColor=none;fillColor=none;align=left;verticalAlign=top;spacingLeft=4;spacingRight=4;overflow=hidden;rotatable=0;points=[[0,0.5],[1,0.5]];portConstraint=eastwest;whiteSpace=wrap;html=1;" parent="NrNgkpMDVIVtLAmpbGIn-17" vertex="1">
          <mxGeometry y="52" width="260" height="26" as="geometry" />
        </mxCell>
        <mxCell id="NrNgkpMDVIVtLAmpbGIn-18" value="- mana_cost: float" style="text;strokeColor=none;fillColor=none;align=left;verticalAlign=top;spacingLeft=4;spacingRight=4;overflow=hidden;rotatable=0;points=[[0,0.5],[1,0.5]];portConstraint=eastwest;whiteSpace=wrap;html=1;" parent="NrNgkpMDVIVtLAmpbGIn-17" vertex="1">
          <mxGeometry y="78" width="260" height="26" as="geometry" />
        </mxCell>
        <mxCell id="NrNgkpMDVIVtLAmpbGIn-19" value="" style="line;strokeWidth=1;fillColor=none;align=left;verticalAlign=middle;spacingTop=-1;spacingLeft=3;spacingRight=3;rotatable=0;labelPosition=right;points=[];portConstraint=eastwest;strokeColor=inherit;" parent="NrNgkpMDVIVtLAmpbGIn-17" vertex="1">
          <mxGeometry y="104" width="260" height="8" as="geometry" />
        </mxCell>
        <mxCell id="NrNgkpMDVIVtLAmpbGIn-20" value="+ get_name(): str" style="text;strokeColor=none;fillColor=none;align=left;verticalAlign=top;spacingLeft=4;spacingRight=4;overflow=hidden;rotatable=0;points=[[0,0.5],[1,0.5]];portConstraint=eastwest;whiteSpace=wrap;html=1;" parent="NrNgkpMDVIVtLAmpbGIn-17" vertex="1">
          <mxGeometry y="112" width="260" height="26" as="geometry" />
        </mxCell>
        <mxCell id="NrNgkpMDVIVtLAmpbGIn-23" value="+ get_description(): str" style="text;strokeColor=none;fillColor=none;align=left;verticalAlign=top;spacingLeft=4;spacingRight=4;overflow=hidden;rotatable=0;points=[[0,0.5],[1,0.5]];portConstraint=eastwest;whiteSpace=wrap;html=1;" parent="NrNgkpMDVIVtLAmpbGIn-17" vertex="1">
          <mxGeometry y="138" width="260" height="26" as="geometry" />
        </mxCell>
        <mxCell id="NrNgkpMDVIVtLAmpbGIn-24" value="+ get_mana_cost(): float" style="text;strokeColor=none;fillColor=none;align=left;verticalAlign=top;spacingLeft=4;spacingRight=4;overflow=hidden;rotatable=0;points=[[0,0.5],[1,0.5]];portConstraint=eastwest;whiteSpace=wrap;html=1;" parent="NrNgkpMDVIVtLAmpbGIn-17" vertex="1">
          <mxGeometry y="164" width="260" height="26" as="geometry" />
        </mxCell>
        <mxCell id="NrNgkpMDVIVtLAmpbGIn-25" value="+ set_name(): str" style="text;strokeColor=none;fillColor=none;align=left;verticalAlign=top;spacingLeft=4;spacingRight=4;overflow=hidden;rotatable=0;points=[[0,0.5],[1,0.5]];portConstraint=eastwest;whiteSpace=wrap;html=1;" parent="NrNgkpMDVIVtLAmpbGIn-17" vertex="1">
          <mxGeometry y="190" width="260" height="26" as="geometry" />
        </mxCell>
        <mxCell id="NrNgkpMDVIVtLAmpbGIn-26" value="+ set_description(): str" style="text;strokeColor=none;fillColor=none;align=left;verticalAlign=top;spacingLeft=4;spacingRight=4;overflow=hidden;rotatable=0;points=[[0,0.5],[1,0.5]];portConstraint=eastwest;whiteSpace=wrap;html=1;" parent="NrNgkpMDVIVtLAmpbGIn-17" vertex="1">
          <mxGeometry y="216" width="260" height="26" as="geometry" />
        </mxCell>
        <mxCell id="NrNgkpMDVIVtLAmpbGIn-27" value="+ set_mana_cost(): str" style="text;strokeColor=none;fillColor=none;align=left;verticalAlign=top;spacingLeft=4;spacingRight=4;overflow=hidden;rotatable=0;points=[[0,0.5],[1,0.5]];portConstraint=eastwest;whiteSpace=wrap;html=1;" parent="NrNgkpMDVIVtLAmpbGIn-17" vertex="1">
          <mxGeometry y="242" width="260" height="26" as="geometry" />
        </mxCell>
        <mxCell id="NrNgkpMDVIVtLAmpbGIn-28" value="+ cast(target: HogwartsStudent): None" style="text;strokeColor=none;fillColor=none;align=left;verticalAlign=top;spacingLeft=4;spacingRight=4;overflow=hidden;rotatable=0;points=[[0,0.5],[1,0.5]];portConstraint=eastwest;whiteSpace=wrap;html=1;" parent="NrNgkpMDVIVtLAmpbGIn-17" vertex="1">
          <mxGeometry y="268" width="260" height="26" as="geometry" />
        </mxCell>
        <mxCell id="NrNgkpMDVIVtLAmpbGIn-29" value="+ __str__(): str" style="text;strokeColor=none;fillColor=none;align=left;verticalAlign=top;spacingLeft=4;spacingRight=4;overflow=hidden;rotatable=0;points=[[0,0.5],[1,0.5]];portConstraint=eastwest;whiteSpace=wrap;html=1;" parent="NrNgkpMDVIVtLAmpbGIn-17" vertex="1">
          <mxGeometry y="294" width="260" height="26" as="geometry" />
        </mxCell>
        <mxCell id="NrNgkpMDVIVtLAmpbGIn-30" value="Hogwarts" style="swimlane;fontStyle=1;align=center;verticalAlign=top;childLayout=stackLayout;horizontal=1;startSize=26;horizontalStack=0;resizeParent=1;resizeParentMax=0;resizeLast=0;collapsible=1;marginBottom=0;whiteSpace=wrap;html=1;" parent="WIyWlLk6GJQsqaUBKTNV-1" vertex="1">
          <mxGeometry x="160" y="720" width="480" height="268" as="geometry" />
        </mxCell>
        <mxCell id="NrNgkpMDVIVtLAmpbGIn-31" value="- students: HogwatsStudent" style="text;strokeColor=none;fillColor=none;align=left;verticalAlign=top;spacingLeft=4;spacingRight=4;overflow=hidden;rotatable=0;points=[[0,0.5],[1,0.5]];portConstraint=eastwest;whiteSpace=wrap;html=1;" parent="NrNgkpMDVIVtLAmpbGIn-30" vertex="1">
          <mxGeometry y="26" width="480" height="26" as="geometry" />
        </mxCell>
        <mxCell id="NrNgkpMDVIVtLAmpbGIn-34" value="- spells: Spell" style="text;strokeColor=none;fillColor=none;align=left;verticalAlign=top;spacingLeft=4;spacingRight=4;overflow=hidden;rotatable=0;points=[[0,0.5],[1,0.5]];portConstraint=eastwest;whiteSpace=wrap;html=1;" parent="NrNgkpMDVIVtLAmpbGIn-30" vertex="1">
          <mxGeometry y="52" width="480" height="26" as="geometry" />
        </mxCell>
        <mxCell id="NrNgkpMDVIVtLAmpbGIn-32" value="" style="line;strokeWidth=1;fillColor=none;align=left;verticalAlign=middle;spacingTop=-1;spacingLeft=3;spacingRight=3;rotatable=0;labelPosition=right;points=[];portConstraint=eastwest;strokeColor=inherit;" parent="NrNgkpMDVIVtLAmpbGIn-30" vertex="1">
          <mxGeometry y="78" width="480" height="8" as="geometry" />
        </mxCell>
        <mxCell id="NrNgkpMDVIVtLAmpbGIn-33" value="+ get_students(): List" style="text;strokeColor=none;fillColor=none;align=left;verticalAlign=top;spacingLeft=4;spacingRight=4;overflow=hidden;rotatable=0;points=[[0,0.5],[1,0.5]];portConstraint=eastwest;whiteSpace=wrap;html=1;" parent="NrNgkpMDVIVtLAmpbGIn-30" vertex="1">
          <mxGeometry y="86" width="480" height="26" as="geometry" />
        </mxCell>
        <mxCell id="NrNgkpMDVIVtLAmpbGIn-35" value="+ get_spells(): List" style="text;strokeColor=none;fillColor=none;align=left;verticalAlign=top;spacingLeft=4;spacingRight=4;overflow=hidden;rotatable=0;points=[[0,0.5],[1,0.5]];portConstraint=eastwest;whiteSpace=wrap;html=1;" parent="NrNgkpMDVIVtLAmpbGIn-30" vertex="1">
          <mxGeometry y="112" width="480" height="26" as="geometry" />
        </mxCell>
        <mxCell id="NrNgkpMDVIVtLAmpbGIn-36" value="+ set_students(students: List): None" style="text;strokeColor=none;fillColor=none;align=left;verticalAlign=top;spacingLeft=4;spacingRight=4;overflow=hidden;rotatable=0;points=[[0,0.5],[1,0.5]];portConstraint=eastwest;whiteSpace=wrap;html=1;" parent="NrNgkpMDVIVtLAmpbGIn-30" vertex="1">
          <mxGeometry y="138" width="480" height="26" as="geometry" />
        </mxCell>
        <mxCell id="NrNgkpMDVIVtLAmpbGIn-37" value="+ set_spells(spells: List): None" style="text;strokeColor=none;fillColor=none;align=left;verticalAlign=top;spacingLeft=4;spacingRight=4;overflow=hidden;rotatable=0;points=[[0,0.5],[1,0.5]];portConstraint=eastwest;whiteSpace=wrap;html=1;" parent="NrNgkpMDVIVtLAmpbGIn-30" vertex="1">
          <mxGeometry y="164" width="480" height="26" as="geometry" />
        </mxCell>
        <mxCell id="NrNgkpMDVIVtLAmpbGIn-38" value="+ enroll_student(student: HogwartsStudent): None" style="text;strokeColor=none;fillColor=none;align=left;verticalAlign=top;spacingLeft=4;spacingRight=4;overflow=hidden;rotatable=0;points=[[0,0.5],[1,0.5]];portConstraint=eastwest;whiteSpace=wrap;html=1;" parent="NrNgkpMDVIVtLAmpbGIn-30" vertex="1">
          <mxGeometry y="190" width="480" height="26" as="geometry" />
        </mxCell>
        <mxCell id="NrNgkpMDVIVtLAmpbGIn-39" value="+ teach_spell(spell: Spell): None" style="text;strokeColor=none;fillColor=none;align=left;verticalAlign=top;spacingLeft=4;spacingRight=4;overflow=hidden;rotatable=0;points=[[0,0.5],[1,0.5]];portConstraint=eastwest;whiteSpace=wrap;html=1;" parent="NrNgkpMDVIVtLAmpbGIn-30" vertex="1">
          <mxGeometry y="216" width="480" height="26" as="geometry" />
        </mxCell>
        <mxCell id="NrNgkpMDVIVtLAmpbGIn-40" value="+ simulate_duel(student1: HogwartsStudent, student2: HogwartsStudent): None" style="text;strokeColor=none;fillColor=none;align=left;verticalAlign=top;spacingLeft=4;spacingRight=4;overflow=hidden;rotatable=0;points=[[0,0.5],[1,0.5]];portConstraint=eastwest;whiteSpace=wrap;html=1;" parent="NrNgkpMDVIVtLAmpbGIn-30" vertex="1">
          <mxGeometry y="242" width="480" height="26" as="geometry" />
        </mxCell>
        <mxCell id="NrNgkpMDVIVtLAmpbGIn-45" value="" style="html=1;verticalAlign=bottom;endArrow=open;dashed=1;endSize=8;curved=0;rounded=0;entryX=0.462;entryY=1.154;entryDx=0;entryDy=0;entryPerimeter=0;exitX=0.25;exitY=0;exitDx=0;exitDy=0;" parent="WIyWlLk6GJQsqaUBKTNV-1" source="NrNgkpMDVIVtLAmpbGIn-30" target="NrNgkpMDVIVtLAmpbGIn-15" edge="1">
          <mxGeometry relative="1" as="geometry">
            <mxPoint x="380" y="690" as="sourcePoint" />
            <mxPoint x="300" y="690" as="targetPoint" />
          </mxGeometry>
        </mxCell>
        <mxCell id="NrNgkpMDVIVtLAmpbGIn-46" value="" style="html=1;verticalAlign=bottom;endArrow=open;dashed=1;endSize=8;curved=0;rounded=0;exitX=1;exitY=0.5;exitDx=0;exitDy=0;entryX=0;entryY=0.5;entryDx=0;entryDy=0;" parent="WIyWlLk6GJQsqaUBKTNV-1" source="NrNgkpMDVIVtLAmpbGIn-10" target="NrNgkpMDVIVtLAmpbGIn-24" edge="1">
          <mxGeometry relative="1" as="geometry">
            <mxPoint x="454" y="520" as="sourcePoint" />
            <mxPoint x="374" y="520" as="targetPoint" />
          </mxGeometry>
        </mxCell>
        <mxCell id="NrNgkpMDVIVtLAmpbGIn-49" value="" style="endArrow=diamondThin;endFill=0;endSize=24;html=1;rounded=0;entryX=0.75;entryY=0;entryDx=0;entryDy=0;exitX=0.488;exitY=1.038;exitDx=0;exitDy=0;exitPerimeter=0;" parent="WIyWlLk6GJQsqaUBKTNV-1" source="NrNgkpMDVIVtLAmpbGIn-29" target="NrNgkpMDVIVtLAmpbGIn-30" edge="1">
          <mxGeometry width="160" relative="1" as="geometry">
            <mxPoint x="680" y="680" as="sourcePoint" />
            <mxPoint x="520" y="680" as="targetPoint" />
          </mxGeometry>
        </mxCell>
        <mxCell id="NrNgkpMDVIVtLAmpbGIn-51" value="" style="endArrow=diamondThin;endFill=0;endSize=24;html=1;rounded=0;entryX=0;entryY=0.5;entryDx=0;entryDy=0;exitX=1;exitY=0.5;exitDx=0;exitDy=0;" parent="WIyWlLk6GJQsqaUBKTNV-1" source="NrNgkpMDVIVtLAmpbGIn-13" target="NrNgkpMDVIVtLAmpbGIn-27" edge="1">
          <mxGeometry width="160" relative="1" as="geometry">
            <mxPoint x="477" y="540" as="sourcePoint" />
            <mxPoint x="390" y="661" as="targetPoint" />
          </mxGeometry>
        </mxCell>
        <mxCell id="Ttb9FLAZ6aujYkMbaEGD-8" value="Program" style="shape=umlLifeline;perimeter=lifelinePerimeter;whiteSpace=wrap;html=1;container=1;dropTarget=0;collapsible=0;recursiveResize=0;outlineConnect=0;portConstraint=eastwest;newEdgeStyle={&quot;curved&quot;:0,&quot;rounded&quot;:0};" vertex="1" parent="WIyWlLk6GJQsqaUBKTNV-1">
          <mxGeometry x="840" y="200" width="120" height="450" as="geometry" />
        </mxCell>
        <mxCell id="Ttb9FLAZ6aujYkMbaEGD-5" value="" style="html=1;points=[[0,0,0,0,5],[0,1,0,0,-5],[1,0,0,0,5],[1,1,0,0,-5]];perimeter=orthogonalPerimeter;outlineConnect=0;targetShapes=umlLifeline;portConstraint=eastwest;newEdgeStyle={&quot;curved&quot;:0,&quot;rounded&quot;:0};direction=west;" vertex="1" parent="Ttb9FLAZ6aujYkMbaEGD-8">
          <mxGeometry x="55" y="70" width="10" height="360" as="geometry" />
        </mxCell>
        <mxCell id="Ttb9FLAZ6aujYkMbaEGD-9" value="Hogwarts" style="shape=umlLifeline;perimeter=lifelinePerimeter;whiteSpace=wrap;html=1;container=1;dropTarget=0;collapsible=0;recursiveResize=0;outlineConnect=0;portConstraint=eastwest;newEdgeStyle={&quot;curved&quot;:0,&quot;rounded&quot;:0};" vertex="1" parent="WIyWlLk6GJQsqaUBKTNV-1">
          <mxGeometry x="1160" y="200" width="120" height="450" as="geometry" />
        </mxCell>
        <mxCell id="Ttb9FLAZ6aujYkMbaEGD-12" value="" style="html=1;points=[[0,0,0,0,5],[0,1,0,0,-5],[1,0,0,0,5],[1,1,0,0,-5]];perimeter=orthogonalPerimeter;outlineConnect=0;targetShapes=umlLifeline;portConstraint=eastwest;newEdgeStyle={&quot;curved&quot;:0,&quot;rounded&quot;:0};" vertex="1" parent="Ttb9FLAZ6aujYkMbaEGD-9">
          <mxGeometry x="55" y="180" width="10" height="40" as="geometry" />
        </mxCell>
        <mxCell id="Ttb9FLAZ6aujYkMbaEGD-20" value="" style="html=1;points=[[0,0,0,0,5],[0,1,0,0,-5],[1,0,0,0,5],[1,1,0,0,-5]];perimeter=orthogonalPerimeter;outlineConnect=0;targetShapes=umlLifeline;portConstraint=eastwest;newEdgeStyle={&quot;curved&quot;:0,&quot;rounded&quot;:0};" vertex="1" parent="Ttb9FLAZ6aujYkMbaEGD-9">
          <mxGeometry x="55" y="292" width="10" height="138" as="geometry" />
        </mxCell>
        <mxCell id="Ttb9FLAZ6aujYkMbaEGD-10" value="HogwartsStudent" style="shape=umlLifeline;perimeter=lifelinePerimeter;whiteSpace=wrap;html=1;container=1;dropTarget=0;collapsible=0;recursiveResize=0;outlineConnect=0;portConstraint=eastwest;newEdgeStyle={&quot;curved&quot;:0,&quot;rounded&quot;:0};" vertex="1" parent="WIyWlLk6GJQsqaUBKTNV-1">
          <mxGeometry x="1380" y="200" width="120" height="450" as="geometry" />
        </mxCell>
        <mxCell id="Ttb9FLAZ6aujYkMbaEGD-15" value="" style="html=1;points=[[0,0,0,0,5],[0,1,0,0,-5],[1,0,0,0,5],[1,1,0,0,-5]];perimeter=orthogonalPerimeter;outlineConnect=0;targetShapes=umlLifeline;portConstraint=eastwest;newEdgeStyle={&quot;curved&quot;:0,&quot;rounded&quot;:0};" vertex="1" parent="Ttb9FLAZ6aujYkMbaEGD-10">
          <mxGeometry x="55" y="130" width="10" height="48" as="geometry" />
        </mxCell>
        <mxCell id="Ttb9FLAZ6aujYkMbaEGD-19" value="" style="html=1;points=[[0,0,0,0,5],[0,1,0,0,-5],[1,0,0,0,5],[1,1,0,0,-5]];perimeter=orthogonalPerimeter;outlineConnect=0;targetShapes=umlLifeline;portConstraint=eastwest;newEdgeStyle={&quot;curved&quot;:0,&quot;rounded&quot;:0};" vertex="1" parent="Ttb9FLAZ6aujYkMbaEGD-10">
          <mxGeometry x="55" y="300" width="10" height="78" as="geometry" />
        </mxCell>
        <mxCell id="Ttb9FLAZ6aujYkMbaEGD-11" style="edgeStyle=orthogonalEdgeStyle;rounded=0;orthogonalLoop=1;jettySize=auto;html=1;curved=0;" edge="1" parent="WIyWlLk6GJQsqaUBKTNV-1" source="Ttb9FLAZ6aujYkMbaEGD-5" target="Ttb9FLAZ6aujYkMbaEGD-12">
          <mxGeometry relative="1" as="geometry">
            <mxPoint x="1070" y="330" as="targetPoint" />
            <Array as="points">
              <mxPoint x="1060" y="390" />
              <mxPoint x="1060" y="390" />
            </Array>
          </mxGeometry>
        </mxCell>
        <mxCell id="Ttb9FLAZ6aujYkMbaEGD-13" value="new Hogwarts([HogwartsStudent], [Spell])" style="edgeLabel;html=1;align=center;verticalAlign=middle;resizable=0;points=[];" vertex="1" connectable="0" parent="Ttb9FLAZ6aujYkMbaEGD-11">
          <mxGeometry x="-0.2297" y="-2" relative="1" as="geometry">
            <mxPoint x="27" y="-1" as="offset" />
          </mxGeometry>
        </mxCell>
        <mxCell id="Ttb9FLAZ6aujYkMbaEGD-14" style="edgeStyle=orthogonalEdgeStyle;rounded=0;orthogonalLoop=1;jettySize=auto;html=1;curved=0;exitX=0;exitY=1;exitDx=0;exitDy=-5;exitPerimeter=0;dashed=1;" edge="1" parent="WIyWlLk6GJQsqaUBKTNV-1" source="Ttb9FLAZ6aujYkMbaEGD-12" target="Ttb9FLAZ6aujYkMbaEGD-5">
          <mxGeometry relative="1" as="geometry">
            <Array as="points">
              <mxPoint x="990" y="417" />
              <mxPoint x="990" y="417" />
            </Array>
          </mxGeometry>
        </mxCell>
        <mxCell id="Ttb9FLAZ6aujYkMbaEGD-16" style="edgeStyle=orthogonalEdgeStyle;rounded=0;orthogonalLoop=1;jettySize=auto;html=1;curved=0;" edge="1" parent="WIyWlLk6GJQsqaUBKTNV-1" target="Ttb9FLAZ6aujYkMbaEGD-15">
          <mxGeometry relative="1" as="geometry">
            <mxPoint x="905" y="340" as="sourcePoint" />
            <Array as="points">
              <mxPoint x="905" y="340" />
            </Array>
          </mxGeometry>
        </mxCell>
        <mxCell id="Ttb9FLAZ6aujYkMbaEGD-17" value="new HogwartsStudent(str, str, float, [Spell])" style="edgeLabel;html=1;align=center;verticalAlign=middle;resizable=0;points=[];" vertex="1" connectable="0" parent="Ttb9FLAZ6aujYkMbaEGD-16">
          <mxGeometry x="0.0515" y="2" relative="1" as="geometry">
            <mxPoint x="-133" as="offset" />
          </mxGeometry>
        </mxCell>
        <mxCell id="Ttb9FLAZ6aujYkMbaEGD-18" style="edgeStyle=orthogonalEdgeStyle;rounded=0;orthogonalLoop=1;jettySize=auto;html=1;curved=0;dashed=1;" edge="1" parent="WIyWlLk6GJQsqaUBKTNV-1" source="Ttb9FLAZ6aujYkMbaEGD-15" target="Ttb9FLAZ6aujYkMbaEGD-8">
          <mxGeometry relative="1" as="geometry">
            <Array as="points">
              <mxPoint x="1310" y="360" />
              <mxPoint x="1310" y="360" />
            </Array>
          </mxGeometry>
        </mxCell>
        <mxCell id="Ttb9FLAZ6aujYkMbaEGD-21" style="edgeStyle=orthogonalEdgeStyle;rounded=0;orthogonalLoop=1;jettySize=auto;html=1;curved=0;" edge="1" parent="WIyWlLk6GJQsqaUBKTNV-1" source="Ttb9FLAZ6aujYkMbaEGD-5" target="Ttb9FLAZ6aujYkMbaEGD-20">
          <mxGeometry relative="1" as="geometry">
            <Array as="points">
              <mxPoint x="1070" y="500" />
              <mxPoint x="1070" y="500" />
            </Array>
          </mxGeometry>
        </mxCell>
        <mxCell id="Ttb9FLAZ6aujYkMbaEGD-23" value="simulate_duel(HogwartsStudent, HogwartsStudent)" style="edgeLabel;html=1;align=center;verticalAlign=middle;resizable=0;points=[];" vertex="1" connectable="0" parent="Ttb9FLAZ6aujYkMbaEGD-21">
          <mxGeometry x="0.0373" y="-1" relative="1" as="geometry">
            <mxPoint x="-4" as="offset" />
          </mxGeometry>
        </mxCell>
        <mxCell id="Ttb9FLAZ6aujYkMbaEGD-24" value="Spell" style="shape=umlLifeline;perimeter=lifelinePerimeter;whiteSpace=wrap;html=1;container=1;dropTarget=0;collapsible=0;recursiveResize=0;outlineConnect=0;portConstraint=eastwest;newEdgeStyle={&quot;curved&quot;:0,&quot;rounded&quot;:0};" vertex="1" parent="WIyWlLk6GJQsqaUBKTNV-1">
          <mxGeometry x="1530" y="200" width="120" height="450" as="geometry" />
        </mxCell>
        <mxCell id="Ttb9FLAZ6aujYkMbaEGD-25" value="" style="html=1;points=[[0,0,0,0,5],[0,1,0,0,-5],[1,0,0,0,5],[1,1,0,0,-5]];perimeter=orthogonalPerimeter;outlineConnect=0;targetShapes=umlLifeline;portConstraint=eastwest;newEdgeStyle={&quot;curved&quot;:0,&quot;rounded&quot;:0};" vertex="1" parent="Ttb9FLAZ6aujYkMbaEGD-24">
          <mxGeometry x="55" y="60" width="10" height="48" as="geometry" />
        </mxCell>
        <mxCell id="Ttb9FLAZ6aujYkMbaEGD-26" value="" style="html=1;points=[[0,0,0,0,5],[0,1,0,0,-5],[1,0,0,0,5],[1,1,0,0,-5]];perimeter=orthogonalPerimeter;outlineConnect=0;targetShapes=umlLifeline;portConstraint=eastwest;newEdgeStyle={&quot;curved&quot;:0,&quot;rounded&quot;:0};" vertex="1" parent="Ttb9FLAZ6aujYkMbaEGD-24">
          <mxGeometry x="55" y="310" width="10" height="58" as="geometry" />
        </mxCell>
        <mxCell id="Ttb9FLAZ6aujYkMbaEGD-27" style="edgeStyle=orthogonalEdgeStyle;rounded=0;orthogonalLoop=1;jettySize=auto;html=1;curved=0;" edge="1" parent="WIyWlLk6GJQsqaUBKTNV-1" source="Ttb9FLAZ6aujYkMbaEGD-20" target="Ttb9FLAZ6aujYkMbaEGD-19">
          <mxGeometry relative="1" as="geometry">
            <Array as="points">
              <mxPoint x="1290" y="510" />
              <mxPoint x="1290" y="510" />
            </Array>
          </mxGeometry>
        </mxCell>
        <mxCell id="Ttb9FLAZ6aujYkMbaEGD-28" value="cast_spell(HogwartsStudent)" style="edgeLabel;html=1;align=center;verticalAlign=middle;resizable=0;points=[];" vertex="1" connectable="0" parent="Ttb9FLAZ6aujYkMbaEGD-27">
          <mxGeometry x="-0.0438" y="2" relative="1" as="geometry">
            <mxPoint as="offset" />
          </mxGeometry>
        </mxCell>
        <mxCell id="Ttb9FLAZ6aujYkMbaEGD-29" style="edgeStyle=orthogonalEdgeStyle;rounded=0;orthogonalLoop=1;jettySize=auto;html=1;curved=0;" edge="1" parent="WIyWlLk6GJQsqaUBKTNV-1" source="Ttb9FLAZ6aujYkMbaEGD-19" target="Ttb9FLAZ6aujYkMbaEGD-26">
          <mxGeometry relative="1" as="geometry">
            <Array as="points">
              <mxPoint x="1550" y="520" />
              <mxPoint x="1550" y="520" />
            </Array>
          </mxGeometry>
        </mxCell>
        <mxCell id="Ttb9FLAZ6aujYkMbaEGD-30" value="cast(HogwartsStudent)" style="edgeLabel;html=1;align=center;verticalAlign=middle;resizable=0;points=[];" vertex="1" connectable="0" parent="Ttb9FLAZ6aujYkMbaEGD-29">
          <mxGeometry x="-0.0392" y="-1" relative="1" as="geometry">
            <mxPoint as="offset" />
          </mxGeometry>
        </mxCell>
        <mxCell id="Ttb9FLAZ6aujYkMbaEGD-31" style="edgeStyle=orthogonalEdgeStyle;rounded=0;orthogonalLoop=1;jettySize=auto;html=1;curved=0;exitX=0;exitY=1;exitDx=0;exitDy=-5;exitPerimeter=0;dashed=1;" edge="1" parent="WIyWlLk6GJQsqaUBKTNV-1" source="Ttb9FLAZ6aujYkMbaEGD-26" target="Ttb9FLAZ6aujYkMbaEGD-19">
          <mxGeometry relative="1" as="geometry">
            <Array as="points">
              <mxPoint x="1585" y="550" />
            </Array>
          </mxGeometry>
        </mxCell>
        <mxCell id="Ttb9FLAZ6aujYkMbaEGD-32" style="edgeStyle=orthogonalEdgeStyle;rounded=0;orthogonalLoop=1;jettySize=auto;html=1;curved=0;dashed=1;" edge="1" parent="WIyWlLk6GJQsqaUBKTNV-1" source="Ttb9FLAZ6aujYkMbaEGD-19" target="Ttb9FLAZ6aujYkMbaEGD-20">
          <mxGeometry relative="1" as="geometry">
            <Array as="points">
              <mxPoint x="1330" y="570" />
              <mxPoint x="1330" y="570" />
            </Array>
          </mxGeometry>
        </mxCell>
        <mxCell id="Ttb9FLAZ6aujYkMbaEGD-33" style="edgeStyle=orthogonalEdgeStyle;rounded=0;orthogonalLoop=1;jettySize=auto;html=1;curved=0;dashed=1;" edge="1" parent="WIyWlLk6GJQsqaUBKTNV-1" source="Ttb9FLAZ6aujYkMbaEGD-20" target="Ttb9FLAZ6aujYkMbaEGD-5">
          <mxGeometry relative="1" as="geometry">
            <Array as="points">
              <mxPoint x="1060" y="610" />
              <mxPoint x="1060" y="610" />
            </Array>
          </mxGeometry>
        </mxCell>
        <mxCell id="Ttb9FLAZ6aujYkMbaEGD-35" style="edgeStyle=orthogonalEdgeStyle;rounded=0;orthogonalLoop=1;jettySize=auto;html=1;curved=0;" edge="1" parent="WIyWlLk6GJQsqaUBKTNV-1" source="Ttb9FLAZ6aujYkMbaEGD-5" target="Ttb9FLAZ6aujYkMbaEGD-25">
          <mxGeometry relative="1" as="geometry">
            <Array as="points">
              <mxPoint x="1090" y="276" />
              <mxPoint x="1090" y="276" />
            </Array>
          </mxGeometry>
        </mxCell>
        <mxCell id="Ttb9FLAZ6aujYkMbaEGD-36" value="new Spell(str, str, float)" style="edgeLabel;html=1;align=center;verticalAlign=middle;resizable=0;points=[];" vertex="1" connectable="0" parent="Ttb9FLAZ6aujYkMbaEGD-35">
          <mxGeometry x="-0.6544" y="3" relative="1" as="geometry">
            <mxPoint as="offset" />
          </mxGeometry>
        </mxCell>
        <mxCell id="Ttb9FLAZ6aujYkMbaEGD-37" style="edgeStyle=orthogonalEdgeStyle;rounded=0;orthogonalLoop=1;jettySize=auto;html=1;curved=0;dashed=1;" edge="1" parent="WIyWlLk6GJQsqaUBKTNV-1" source="Ttb9FLAZ6aujYkMbaEGD-25" target="Ttb9FLAZ6aujYkMbaEGD-5">
          <mxGeometry relative="1" as="geometry">
            <Array as="points">
              <mxPoint x="1250" y="300" />
              <mxPoint x="1250" y="300" />
            </Array>
          </mxGeometry>
        </mxCell>
        <mxCell id="Ttb9FLAZ6aujYkMbaEGD-38" value="Spell" style="edgeLabel;html=1;align=center;verticalAlign=middle;resizable=0;points=[];" vertex="1" connectable="0" parent="Ttb9FLAZ6aujYkMbaEGD-37">
          <mxGeometry x="-0.7721" y="-1" relative="1" as="geometry">
            <mxPoint as="offset" />
          </mxGeometry>
        </mxCell>
        <mxCell id="Ttb9FLAZ6aujYkMbaEGD-40" value="Loop" style="shape=umlFrame;whiteSpace=wrap;html=1;pointerEvents=0;width=60;height=30;" vertex="1" parent="WIyWlLk6GJQsqaUBKTNV-1">
          <mxGeometry x="1210" y="440" width="400" height="210" as="geometry" />
        </mxCell>
        <mxCell id="Ttb9FLAZ6aujYkMbaEGD-41" value="[HogwartsStudetn.can_attacking]" style="text;html=1;align=center;verticalAlign=middle;resizable=0;points=[];autosize=1;strokeColor=none;fillColor=none;fontSize=10;" vertex="1" parent="WIyWlLk6GJQsqaUBKTNV-1">
          <mxGeometry x="1270" y="440" width="170" height="30" as="geometry" />
        </mxCell>
      </root>
    </mxGraphModel>
  </diagram>
</mxfile>
